<svg xmlns="http://www.w3.org/2000/svg" version="1.1" xmlns:xlink="http://www.w3.org/1999/xlink" xmlns:svgjs="http://svgjs.dev/svgjs" width="2000" height="318" viewBox="0 0 2000 318"><g transform="matrix(1,0,0,1,-1.2121212121212466,-0.4779455439810647)"><svg viewBox="0 0 396 63" data-background-color="#ffffff" preserveAspectRatio="xMidYMid meet" height="318" width="2000" xmlns="http://www.w3.org/2000/svg" xmlns:xlink="http://www.w3.org/1999/xlink"><g id="tight-bounds" transform="matrix(1,0,0,1,0.2400000000000091,0.09468732475096431)"><svg viewBox="0 0 395.52 62.81062535049805" height="62.81062535049805" width="395.52"><g><svg viewBox="0 0 527.7704845845111 83.81268754623922" height="62.81062535049805" width="395.52"><g><rect width="7.520711102102887" height="83.81268754623922" x="105.04204808423316" y="0" fill="#77d4fc" opacity="1" stroke-width="0" stroke="transparent" fill-opacity="1" class="rect-qz-0" data-fill-palette-color="primary" rx="1%" id="qz-0" data-palette-color="#77d4fc"></rect></g><g transform="matrix(1,0,0,1,132.25048458451116,0.2084892725030798)"><svg viewBox="0 0 395.52 83.39570900123306" height="83.39570900123306" width="395.52"><g id="textblocktransform"><svg viewBox="0 0 395.52 83.39570900123306" height="83.39570900123306" width="395.52" id="textblock"><g><svg viewBox="0 0 395.52 83.39570900123306" height="83.39570900123306" width="395.52"><g transform="matrix(1,0,0,1,0,0)"><svg width="395.52" viewBox="0.55 -29.45 162.17999999999998 34.2" height="83.39570900123306" data-palette-color="#77d4fc"><path d="M34.85 1.25L34.85 1.25Q33.3 1.25 32.6-0.13 31.9-1.5 31.9-3.63 31.9-5.75 32.8-9.45L32.8-9.45Q31.05-9.6 26.85-10.15L26.85-10.15Q19.9-1.55 15.3 1.8L15.3 1.8Q11.35 4.75 7.1 4.75L7.1 4.75Q4.4 4.75 2.48 3.4 0.55 2.05 0.55-0.6L0.55-0.6Q0.55-1.1 0.8-1.53 1.05-1.95 1.3-1.75 1.55-1.55 1.55-0.6L1.55-0.6Q1.55 1.1 2.88 1.95 4.2 2.8 6.1 2.8L6.1 2.8Q10.2 2.8 14.18 0.13 18.15-2.55 25-10.35L25-10.35Q17.65-11.25 15.3-11.25L15.3-11.25Q8.95-11.25 7.45-7.1L7.45-7.1Q7.25-6.55 7.25-6.08 7.25-5.6 7.45-5.23 7.65-4.85 7.53-4.63 7.4-4.4 7.1-4.42 6.8-4.45 6.6-4.75L6.6-4.75Q6.05-5.7 6.05-6.6L6.05-6.6Q6.05-9.7 7.18-11.18 8.3-12.65 9.8-13.05L9.8-13.05Q11.6-13.55 14-13.55 16.4-13.55 26.1-11.65L26.1-11.65Q28.8-14.75 34.3-21.63 39.8-28.5 39.8-28.6L39.8-28.6 39.85-28.6Q39.9-28.65 40.1-28.75L40.1-28.75Q41.3-29.45 42.7-29.45L42.7-29.45Q43.2-29.45 43.2-28.95L43.2-28.95Q43.2-28.9 43.15-28.83 43.1-28.75 43.05-28.63 43-28.5 42.95-28.4L42.95-28.4Q38.15-20.45 35.5-10.5L35.5-10.5 35.35-10.15 36.6-10.1Q37-10.05 38.02-10.05 39.05-10.05 40.2-10.53 41.35-11 41.68-11.55 42-12.1 42.25-11.8 42.5-11.5 42.3-11.15L42.3-11.15Q41.75-10.15 40.35-9.7L40.35-9.7Q39.15-9.2 37.98-9.2 36.8-9.2 36.45-9.2L36.45-9.2 35.1-9.25Q34.15-4.9 34.15-2.33 34.15 0.25 35.55 0.25L35.55 0.25Q36.9 0.25 39.75-1.9 42.6-4.05 45.1-7.45L45.1-7.45Q45.25-7.65 45.5-7.55 45.75-7.45 45.75-7.3 45.75-7.15 45.68-6.93 45.6-6.7 44.9-5.8L44.9-5.8Q42.8-3 39.75-0.5L39.75-0.5Q37.55 1.25 34.85 1.25ZM37.6-23.9L37.6-23.9Q37.65-24 37.73-24.18 37.8-24.35 37.85-24.45L37.85-24.45Q31.6-15.9 27.8-11.25L27.8-11.25 33.05-10.4Q34.45-15.85 37.6-23.9ZM56-14.55L56-14.55Q58.7-14.55 58.7-11.95L58.7-11.95Q58.7-10.6 57.95-9.75L57.95-9.75Q56.7-7.9 53.9-6.53 51.1-5.15 49.15-5L49.15-5Q48.45-4.95 48.4-5.4L48.4-5.4Q48.35-5.6 48.52-5.65 48.7-5.7 48.8-5.7L48.8-5.7Q49.95-5.8 51.75-6.8L51.75-6.8Q55.1-8.6 56.65-10.5L56.65-10.5Q57.3-11.4 57.3-12.23 57.3-13.05 56.5-13.05L56.5-13.05Q55.85-13.05 54.75-12.5L54.75-12.5Q52.4-11.4 49.8-8.68 47.2-5.95 46.4-3.35L46.4-3.35Q46.15-2.55 46.15-1.78 46.15-1 46.8-0.3 47.45 0.4 48.8 0.4L48.8 0.4Q50.3 0.4 52.25-0.4L52.25-0.4Q57.9-2.7 60.95-7.35L60.95-7.35Q61.25-7.75 61.5-7.5L61.5-7.5Q61.7-7.4 61.7-7.25 61.7-7.1 61.55-6.9L61.55-6.9Q60.05-4.4 57.75-2.45L57.75-2.45Q53.3 1.35 49.1 1.35L49.1 1.35Q45.5 1.35 44.05-0.8L44.05-0.8Q43.5-1.65 43.5-2.85 43.5-4.05 44.15-5.7L44.15-5.7Q45.4-8.55 49.5-11.55 53.6-14.55 56-14.55ZM67.75-13.95L68.4-14Q72.25-14.35 73.07-14.35 73.9-14.35 73.9-14.1L73.9-14.1Q73.9-13.8 72.72-13.48 71.55-13.15 67-12.65L67-12.65Q66.75-12.2 66.4-11.6L66.4-11.6Q65.65-10.4 65.6-10.15L65.6-10.15Q62.75-4.45 62.6-2.9L62.6-2.9Q62.55-2.45 62.55-1.75 62.55-1.05 62.95-0.6L62.95-0.6Q63.65 0.2 64.95-0.5 66.25-1.2 68.57-3.3 70.9-5.4 72.35-7.4L72.35-7.4Q72.55-7.65 72.85-7.5L72.85-7.5Q73.6-7.15 70.25-3.55L70.25-3.55Q67.05-0.1 64.9 0.7L64.9 0.7Q63.65 1.15 62.8 1.15L62.8 1.15Q60.8 1.15 60.15-0.75L60.15-0.75Q60.05-1.1 60.05-1.6L60.05-1.6Q60.05-3.35 61.65-6.9L61.65-6.9Q61.4-6.35 59.7-4.4L59.7-4.4Q59.25-3.9 59-4.4L59-4.4Q58.95-4.5 58.95-4.67 58.95-4.85 59.15-5.1L59.15-5.1Q61.6-8.15 63-10.25L63-10.25Q63-10.3 64.1-12.35L64.1-12.35Q63.6-12.25 63.07-12.25 62.55-12.25 62.3-12.58 62.05-12.9 62.25-13.35L62.25-13.35Q62.6-14.15 64.9-14.25L64.9-14.25Q64.95-14.35 65.1-14.35L65.1-14.35 67.6-19Q67.8-19.4 68.05-19.83 68.3-20.25 68.42-20.48 68.55-20.7 68.7-20.95 68.85-21.2 68.95-21.3 69.05-21.4 69.15-21.5L69.15-21.5Q69.35-21.8 70.32-21.8 71.3-21.8 71.65-21.25L71.65-21.25Q71.8-21.05 71.8-20.58 71.8-20.1 71.45-19.53 71.1-18.95 70.7-18.7 70.3-18.45 70.15-18.15L70.15-18.15 67.75-13.95ZM83.24-14.55L83.24-14.55Q85.94-14.55 85.94-11.95L85.94-11.95Q85.94-10.6 85.19-9.75L85.19-9.75Q83.94-7.9 81.14-6.53 78.34-5.15 76.39-5L76.39-5Q75.69-4.95 75.64-5.4L75.64-5.4Q75.59-5.6 75.77-5.65 75.94-5.7 76.04-5.7L76.04-5.7Q77.19-5.8 78.99-6.8L78.99-6.8Q82.34-8.6 83.89-10.5L83.89-10.5Q84.54-11.4 84.54-12.23 84.54-13.05 83.74-13.05L83.74-13.05Q83.09-13.05 81.99-12.5L81.99-12.5Q79.64-11.4 77.04-8.68 74.44-5.95 73.64-3.35L73.64-3.35Q73.39-2.55 73.39-1.78 73.39-1 74.04-0.3 74.69 0.4 76.04 0.4L76.04 0.4Q77.54 0.4 79.49-0.4L79.49-0.4Q85.14-2.7 88.19-7.35L88.19-7.35Q88.49-7.75 88.74-7.5L88.74-7.5Q88.94-7.4 88.94-7.25 88.94-7.1 88.79-6.9L88.79-6.9Q87.29-4.4 84.99-2.45L84.99-2.45Q80.54 1.35 76.34 1.35L76.34 1.35Q72.74 1.35 71.29-0.8L71.29-0.8Q70.74-1.65 70.74-2.85 70.74-4.05 71.39-5.7L71.39-5.7Q72.64-8.55 76.74-11.55 80.84-14.55 83.24-14.55ZM94.24 1.25L94.24 1.25Q91.69 1.25 91.69-1.83 91.69-4.9 96.09-9.4L96.09-9.4Q96.44-9.75 96.59-9.95L96.59-9.95 96.94-10.45Q97.64-11.4 97.59-11.65L97.59-11.65 97.44-12.1Q97.24-12.7 95.79-12.98 94.34-13.25 93.44-13.25L93.44-13.25Q88.94-6.9 88.24-6 87.54-5.1 87.29-5.25 87.04-5.4 87.04-5.6 87.04-5.8 87.34-6.2L87.34-6.2Q90.04-9.5 91.99-13.25L91.99-13.25Q91.39-13.35 91.09-13.68 90.79-14 91.04-14.78 91.29-15.55 92.57-16.85 93.84-18.15 94.79-18.6 95.74-19.05 95.99-19.15 96.24-19.25 96.54-19.25L96.54-19.25Q97.14-19.25 96.14-17.45L96.14-17.45 94.19-14.35Q96.44-14.2 98.04-14.2L98.04-14.2 99.79-14.25Q100.64-14.25 101.04-14.03 101.44-13.8 101.24-13.25L101.24-13.25Q100.89-12.3 99.49-10.7L99.49-10.7Q96.49-7.2 94.99-3.25L94.99-3.25Q94.64-2.3 94.64-1.6L94.64-1.6Q94.64-0.15 95.69-0.15L95.69-0.15Q96.04-0.15 97.02-0.7 97.99-1.25 100.29-3.33 102.59-5.4 103.99-7.4L103.99-7.4Q104.19-7.65 104.47-7.53 104.74-7.4 104.74-7.28 104.74-7.15 104.64-7L104.64-7Q103.89-5.65 101.94-3.55 99.99-1.45 98.14-0.15L98.14-0.15Q96.34 1.25 94.24 1.25ZM117.29-14.2L117.29-14.2Q118.44-14.2 118.44-12.98 118.44-11.75 117.29-9.6 116.14-7.45 115.59-6.1L115.59-6.1Q114.64-3.8 114.64-2.43 114.64-1.05 115.04-0.6L115.04-0.6Q115.79 0.2 117.09-0.53 118.39-1.25 120.71-3.33 123.04-5.4 124.44-7.4L124.44-7.4Q124.64-7.65 124.91-7.53 125.19-7.4 125.19-7.28 125.19-7.15 125.09-7L125.09-7Q124.34-5.65 122.39-3.55 120.44-1.45 118.64-0.18 116.84 1.1 115.09 1.1L115.09 1.1Q113.39 1.05 112.69 0.33 111.99-0.4 111.99-1.5 111.99-2.6 112.19-3.63 112.39-4.65 112.94-6L112.94-6Q113.84-8.15 114.51-9.35 115.19-10.55 115.19-10.93 115.19-11.3 114.79-11.3L114.79-11.3Q113.99-11.3 111.74-9.35L111.74-9.35Q110.19-7.9 107.16-3.88 104.14 0.15 103.74 0.4L103.74 0.4Q101.94 1.3 101.49 1.3 101.04 1.3 101.04 1.15 101.04 1 101.14 0.73 101.24 0.45 102.11-2 102.99-4.45 104.01-7.38 105.04-10.3 105.26-10.9 105.49-11.5 105.56-11.93 105.64-12.35 105.74-12.65 105.84-12.95 106.11-13.33 106.39-13.7 106.84-13.73 107.29-13.75 107.99-13.63 108.69-13.5 108.69-13L108.69-13Q108.69-12.65 108.14-11.48 107.59-10.3 104.99-3.4L104.99-3.4Q106.79-5.6 109.54-8.47 112.29-11.35 114.19-12.85L114.19-12.85Q116.09-14.2 117.29-14.2ZM147.34-7Q146.59-5.65 144.64-3.55 142.69-1.45 141.14-0.3L141.14-0.3Q139.14 1.15 136.79 1.15L136.79 1.15Q136.34 1.15 135.61 0.73 134.89 0.3 134.64-0.5 134.39-1.3 134.39-2.05L134.39-2.05Q134.39-4.65 135.39-7.2L135.39-7.2Q135.24-7.1 134.01-5.08 132.79-3.05 131.01-1.25 129.24 0.55 127.44 0.55L127.44 0.55Q126.59 0.55 125.49 0.1L125.49 0.1Q123.49-0.8 123.49-3.2L123.49-3.2Q123.49-6.15 125.51-9.28 127.54-12.4 128.09-12.6L128.09-12.6Q128.84-12.8 129.51-12.8 130.19-12.8 130.89-12.53 131.59-12.25 130.69-11.6L130.69-11.6Q127.24-8.45 125.79-4.6L125.79-4.6Q125.24-3.1 125.24-2.08 125.24-1.05 125.76-0.75 126.29-0.45 126.79-0.45L126.79-0.45Q127.99-0.45 130.06-2.13 132.14-3.8 135.79-9.1L135.79-9.1Q136.29-9.85 137.54-12.03 138.79-14.2 139.04-14.6L139.04-14.6Q139.84-14.6 140.91-14.23 141.99-13.85 141.64-13.25L141.64-13.25Q139.24-9.25 138.26-7.35 137.29-5.45 136.94-2.9L136.94-2.9Q136.89-2.45 136.89-1.75 136.89-1.05 137.29-0.6L137.29-0.6Q138.04 0.2 139.36-0.53 140.69-1.25 142.99-3.33 145.29-5.4 146.69-7.4L146.69-7.4Q146.89-7.65 147.16-7.53 147.44-7.4 147.44-7.28 147.44-7.15 147.34-7L147.34-7ZM146.58 0.5L146.58 0.5Q145.93 1.25 146.31 1.7 146.68 2.15 147.16 2.15 147.63 2.15 148.13 2L148.13 2Q150.28 1.35 152.31-0.58 154.33-2.5 154.33-4.5L154.33-4.5Q154.33-5.6 151.88-6.9L151.88-6.9Q150.73-7.5 150.58-7.6L150.58-7.6Q149.23-8.5 148.88-9.4L148.88-9.4Q148.18-8.2 146.63-5.95L146.63-5.95Q146.28-5.55 145.98-5.78 145.68-6 145.93-6.4L145.93-6.4Q147.98-9.2 148.63-11.1L148.63-11.1Q148.98-13.85 152.63-16.05 156.28-18.25 159.28-18.25L159.28-18.25Q161.18-18.25 161.96-17.57 162.73-16.9 162.73-16.25 162.73-15.6 162.36-14.75 161.98-13.9 160.83-13.15L160.83-13.15Q160.53-12.95 160.33-13.25L160.33-13.25Q160.23-13.55 160.76-14.08 161.28-14.6 161.43-15.5 161.58-16.4 160.63-16.6L160.63-16.6Q160.48-16.6 160.33-16.6L160.33-16.6Q158.38-16.6 155.46-15.15 152.53-13.7 150.88-11.4L150.88-11.4Q150.23-10.55 150.23-9.68 150.23-8.8 151.43-8.1L151.43-8.1Q151.93-7.8 153.13-7.15 154.33-6.5 154.83-6.2 155.33-5.9 156.03-5.25 156.73-4.6 156.78-4.05L156.78-4.05Q157.03-2.55 155.38-0.75L155.38-0.75Q153.03 1.85 148.38 2.9L148.38 2.9Q147.33 3.15 146.26 3.15 145.18 3.15 144.78 2.35L144.78 2.35Q144.63 2.15 144.63 1.73 144.63 1.3 145.43 0.35L145.43 0.35Q146.18-0.4 147.83-1.1L147.83-1.1Q147.98-1.15 148.08-1.05 148.18-0.95 148.13-0.8 148.08-0.65 147.61-0.45 147.13-0.25 146.58 0.5Z" opacity="1" transform="matrix(1,0,0,1,0,0)" fill="#77d4fc" class="wordmark-text-0" data-fill-palette-color="primary" id="text-0"></path></svg></g></svg></g></svg></g></svg></g><g transform="matrix(1,0,0,1,0,0.2084892725030798)"><svg viewBox="0 0 85.35432268605805 83.39570900123306" height="83.39570900123306" width="85.35432268605805"><g><svg xmlns="http://www.w3.org/2000/svg" xmlns:xlink="http://www.w3.org/1999/xlink" version="1.1" x="0" y="0" viewBox="8.6 9.6 82.80000000000001 80.90000000000002" style="enable-background:new 0 0 100 100;" xml:space="preserve" height="83.39570900123306" width="85.35432268605805" class="icon-icon-0" data-fill-palette-color="accent" id="icon-0"><g fill="#77d4fc" data-fill-palette-color="accent"><path d="M50 60.4c5.7 0 10.4-4.7 10.4-10.4 0-2.3-0.8-4.6-2.2-6.4l15.9-15.9c1.9 1.7 4.4 2.7 6.9 2.7 5.7 0 10.4-4.7 10.4-10.4S86.7 9.6 81 9.6 70.6 14.3 70.6 20c0 1.3 0.2 2.4 0.7 3.7L54.4 40.6c-1.4-0.7-2.9-1-4.4-1-5.7 0-10.4 4.7-10.4 10.4S44.3 60.4 50 60.4z" fill="#77d4fc" data-fill-palette-color="accent"></path><path d="M50 30.4c5.7 0 10.4-4.7 10.4-10.4S55.7 9.6 50 9.6 39.6 14.3 39.6 20 44.3 30.4 50 30.4z" fill="#77d4fc" data-fill-palette-color="accent"></path><path d="M81 39.6c-5.7 0-10.4 4.7-10.4 10.4S75.3 60.4 81 60.4 91.4 55.7 91.4 50 86.7 39.6 81 39.6z" fill="#77d4fc" data-fill-palette-color="accent"></path><path d="M19 69.6c-5.7 0-10.4 4.7-10.4 10.4S13.3 90.4 19 90.4 29.4 85.7 29.4 80 24.7 69.6 19 69.6z" fill="#77d4fc" data-fill-palette-color="accent"></path><path d="M81 69.6c-4.8 0-9 3.3-10.1 8H60.1c-1.1-4.7-5.3-8-10.1-8-3 0-5.8 1.3-7.7 3.5L26.3 57.3c1.9-2 3-4.6 3-7.3 0-4.8-3.3-9-8-10.1v-9.8c4.7-1.1 8-5.3 8-10.1 0-5.7-4.7-10.4-10.4-10.4S8.6 14.3 8.6 20c0 4.8 3.3 9 8 10.1v9.8c-4.7 1.1-8 5.3-8 10.1 0 5.7 4.7 10.4 10.4 10.4 1.1 0 2.2-0.2 3.2-0.5l17.7 17.7c-0.2 0.9-0.3 1.6-0.3 2.5 0 5.7 4.7 10.4 10.4 10.4 4.8 0 9-3.3 10.1-8h10.8c1.1 4.7 5.3 8 10.1 8 5.7 0 10.4-4.7 10.4-10.4S86.7 69.6 81 69.6z" fill="#77d4fc" data-fill-palette-color="accent"></path></g></svg></g></svg></g></svg></g><defs></defs></svg><rect width="395.52" height="62.81062535049805" fill="none" stroke="none" visibility="hidden"></rect></g></svg></g></svg>